<?xml version="1.0" encoding="utf-8"?>
<!-- Generator: Adobe Illustrator 24.1.1, SVG Export Plug-In . SVG Version: 6.00 Build 0)  -->
<svg version="1.1" id="Capa_1" xmlns="http://www.w3.org/2000/svg" xmlns:xlink="http://www.w3.org/1999/xlink" x="0px" y="0px"
	 viewBox="0 0 1366 768" style="enable-background:new 0 0 1366 768;" xml:space="preserve">
<style type="text/css">
	.st0{fill:url(#SVGID_1_);}
	.st1{fill:url(#SVGID_2_);}
	.st2{fill:url(#SVGID_3_);}
	.st3{fill:url(#SVGID_4_);}
	.st4{fill:url(#SVGID_5_);}
	.st5{fill:url(#SVGID_6_);}
	.st6{filter:url(#Adobe_OpacityMaskFilter);}
	.st7{filter:url(#Adobe_OpacityMaskFilter_1_);}
	.st8{mask:url(#SVGID_7_);fill:url(#SVGID_8_);}
	.st9{opacity:0.35;fill:url(#SVGID_9_);}
	.st10{fill:#FFFFFF;}
	.st11{fill:url(#SVGID_10_);}
	.st12{fill:url(#SVGID_11_);}
	.st13{fill:url(#SVGID_12_);}
	.st14{fill:#808080;}
	.st15{fill:#F2F2F2;stroke:#F2F2F2;stroke-width:2;stroke-miterlimit:10;}
</style>
<g>
	<linearGradient id="SVGID_1_" gradientUnits="userSpaceOnUse" x1="149.5" y1="917.5" x2="1216.5" y2="-149.5">
		<stop  offset="0" style="stop-color:#D7D7E1"/>
		<stop  offset="1" style="stop-color:#E1F5FF"/>
	</linearGradient>
	<rect class="st0" width="1366" height="768"/>
</g>
<g>
	
		<linearGradient id="SVGID_2_" gradientUnits="userSpaceOnUse" x1="2898.2441" y1="101.9298" x2="2935.3054" y2="138.991" gradientTransform="matrix(1 0 0 -1 -2165.9521 688)">
		<stop  offset="0" style="stop-color:#FF5682"/>
		<stop  offset="1" style="stop-color:#FF126C"/>
	</linearGradient>
	<circle class="st1" cx="750.82" cy="567.54" r="26.21"/>
	
		<linearGradient id="SVGID_3_" gradientUnits="userSpaceOnUse" x1="290.7266" y1="126.3022" x2="111.9211" y2="152.9285" gradientTransform="matrix(-0.5952 -0.8035 0.8035 -0.5952 1225.5692 646.4608)">
		<stop  offset="0" style="stop-color:#FB8C21"/>
		<stop  offset="1" style="stop-color:#FFE632"/>
	</linearGradient>
	<path class="st2" d="M1272.39,473.41c-0.04-0.04-42.05,32.93-69.67,2.84c-20.79-22.65-8.92-50.41-38.66-99.72
		c-34.13-56.61,29.26-72.31,79.61-35.29C1297.83,381.07,1326.03,433.56,1272.39,473.41z"/>
	<linearGradient id="SVGID_4_" gradientUnits="userSpaceOnUse" x1="871.1368" y1="465.3348" x2="1206.5792" y2="465.3348">
		<stop  offset="0" style="stop-color:#FB8C21"/>
		<stop  offset="1" style="stop-color:#FF126C"/>
	</linearGradient>
	<path class="st3" d="M1122.56,360.1c-57.98-38.5-138.57-101.43-176.12-29.86c-37.55,71.57-140.34,306.6-14.78,302.78
		c125.57-3.82,228.04-61.4,258.34-103.71C1220.3,486.99,1215.19,421.6,1122.56,360.1z"/>
	
		<linearGradient id="SVGID_5_" gradientUnits="userSpaceOnUse" x1="-1041.9988" y1="-1411.6478" x2="-1096.8569" y2="-1721.2976" gradientTransform="matrix(-0.1744 -0.9847 -0.9847 0.1744 -624.4042 -524.1884)">
		<stop  offset="0" style="stop-color:#FF126C"/>
		<stop  offset="1" style="stop-color:#FF5682"/>
	</linearGradient>
	<path class="st4" d="M1127.17,156.07c7.55,23.29,25.65,54.81,74.27,73.88c52.19,20.47,92.83,85.2,23.93,133.61
		c-74.57,52.39-145.27,40.3-178.68,29.31c-73.23-24.09-104.99-107.12-98.5-166.27c5.82-53.09,40.04-96.89,83.86-112.61
		C1074.58,98.73,1115.31,119.48,1127.17,156.07z"/>
	
		<linearGradient id="SVGID_6_" gradientUnits="userSpaceOnUse" x1="24.5126" y1="418.556" x2="51.2132" y2="736.3254" gradientTransform="matrix(0.5708 -0.8211 0.8211 0.5708 345.4 -48.465)">
		<stop  offset="0" style="stop-color:#FFE632"/>
		<stop  offset="1" style="stop-color:#FF5682"/>
	</linearGradient>
	<path class="st5" d="M999.03,147.35c-39.34,3.71-65.96-0.46-126.13-16.19c-60.64-15.85-97.85-31.33-126.42-15.8
		c-28.57,15.52-44.23,46-21.4,89.54c21.79,41.55,31.73,87.6,28.54,131.19c-3.97,54.19-4.02,89.64,47.68,87.2
		c51.7-2.44,128.77-33.47,202.49-138.37c17.57-25,36.91-62.17,44.23-92.13C1055.34,162.83,1036.39,143.82,999.03,147.35z"/>
	<defs>
		<filter id="Adobe_OpacityMaskFilter" filterUnits="userSpaceOnUse" x="787.51" y="171.82" width="455.99" height="455.99">
			<feFlood  style="flood-color:white;flood-opacity:1" result="back"/>
			<feBlend  in="SourceGraphic" in2="back" mode="normal"/>
		</filter>
	</defs>
	<mask maskUnits="userSpaceOnUse" x="787.51" y="171.82" width="455.99" height="455.99" id="SVGID_7_">
		<g class="st6">
			<defs>
				<filter id="Adobe_OpacityMaskFilter_1_" filterUnits="userSpaceOnUse" x="725.53" y="172.73" width="589.14" height="589.14">
					<feFlood  style="flood-color:white;flood-opacity:1" result="back"/>
					<feBlend  in="SourceGraphic" in2="back" mode="normal"/>
				</filter>
			</defs>
			<mask maskUnits="userSpaceOnUse" x="725.53" y="172.73" width="589.14" height="589.14" id="SVGID_7_">
				<g class="st7">
				</g>
			</mask>
			<radialGradient id="SVGID_8_" cx="1020.0984" cy="467.3051" r="294.5707" gradientUnits="userSpaceOnUse">
				<stop  offset="0" style="stop-color:#000000"/>
				<stop  offset="0.3354" style="stop-color:#020202"/>
				<stop  offset="0.4562" style="stop-color:#090909"/>
				<stop  offset="0.5423" style="stop-color:#141414"/>
				<stop  offset="0.612" style="stop-color:#252525"/>
				<stop  offset="0.6716" style="stop-color:#3B3B3B"/>
				<stop  offset="0.7245" style="stop-color:#575757"/>
				<stop  offset="0.7723" style="stop-color:#777777"/>
				<stop  offset="0.8162" style="stop-color:#9D9D9D"/>
				<stop  offset="0.8571" style="stop-color:#C8C8C8"/>
				<stop  offset="0.8934" style="stop-color:#F6F6F6"/>
				<stop  offset="0.9" style="stop-color:#FFFFFF"/>
				<stop  offset="0.9095" style="stop-color:#F9F9F9"/>
				<stop  offset="0.922" style="stop-color:#E9E9E9"/>
				<stop  offset="0.936" style="stop-color:#CECECE"/>
				<stop  offset="0.9513" style="stop-color:#A8A8A8"/>
				<stop  offset="0.9676" style="stop-color:#777777"/>
				<stop  offset="0.9844" style="stop-color:#3D3D3D"/>
				<stop  offset="1" style="stop-color:#000000"/>
			</radialGradient>
			<circle class="st8" cx="1020.1" cy="467.31" r="294.57"/>
		</g>
	</mask>
	<radialGradient id="SVGID_9_" cx="1015.5076" cy="399.8185" r="227.9959" gradientUnits="userSpaceOnUse">
		<stop  offset="0" style="stop-color:#FFFFFF"/>
		<stop  offset="0.3354" style="stop-color:#FDFDFD"/>
		<stop  offset="0.4562" style="stop-color:#F6F6F6"/>
		<stop  offset="0.5423" style="stop-color:#EBEBEB"/>
		<stop  offset="0.612" style="stop-color:#DADADA"/>
		<stop  offset="0.6716" style="stop-color:#C4C4C4"/>
		<stop  offset="0.7245" style="stop-color:#A8A8A8"/>
		<stop  offset="0.7723" style="stop-color:#888888"/>
		<stop  offset="0.8162" style="stop-color:#626262"/>
		<stop  offset="0.8571" style="stop-color:#373737"/>
		<stop  offset="0.8934" style="stop-color:#090909"/>
		<stop  offset="0.9" style="stop-color:#000000"/>
		<stop  offset="0.9095" style="stop-color:#060606"/>
		<stop  offset="0.922" style="stop-color:#161616"/>
		<stop  offset="0.936" style="stop-color:#313131"/>
		<stop  offset="0.9513" style="stop-color:#575757"/>
		<stop  offset="0.9676" style="stop-color:#888888"/>
		<stop  offset="0.9844" style="stop-color:#C2C2C2"/>
		<stop  offset="1" style="stop-color:#FFFFFF"/>
	</radialGradient>
	<circle class="st9" cx="1015.51" cy="399.82" r="228"/>
	<path class="st10" d="M999.78,182.31c27.25,0,53.67,5.33,78.54,15.85c24.03,10.16,45.61,24.71,64.15,43.25
		c18.53,18.54,33.09,40.12,43.25,64.14c10.52,24.87,15.85,51.3,15.85,78.54c0,27.25-5.33,53.67-15.85,78.54
		c-10.16,24.03-24.72,45.61-43.25,64.14c-18.54,18.54-40.12,33.09-64.15,43.25c-24.87,10.52-51.3,15.85-78.54,15.85
		s-53.67-5.33-78.54-15.85c-24.03-10.16-45.61-24.71-64.14-43.25c-18.54-18.54-33.09-40.12-43.25-64.14
		c-10.52-24.87-15.85-51.3-15.85-78.54c0-27.25,5.33-53.67,15.85-78.54c10.16-24.03,24.71-45.61,43.25-64.14
		c18.54-18.54,40.12-33.09,64.14-43.25C946.11,187.64,972.54,182.31,999.78,182.31L999.78,182.31z M999.78,171.82
		c-117.23,0-212.27,95.04-212.27,212.27s95.04,212.27,212.27,212.27c117.23,0,212.27-95.04,212.27-212.27
		S1117.02,171.82,999.78,171.82L999.78,171.82z"/>
	
		<linearGradient id="SVGID_10_" gradientUnits="userSpaceOnUse" x1="-3564.321" y1="4182.1494" x2="-3863.5249" y2="4566.0649" gradientTransform="matrix(-0.9985 -0.0548 0.0477 -0.8686 -2932.9426 3997.2256)">
		<stop  offset="0" style="stop-color:#FB8C21"/>
		<stop  offset="1" style="stop-color:#FFE632"/>
	</linearGradient>
	<path transform="matrix(1 0 0 1 787 218)" class="st11" d="M1101.55,228.99c-104.44-29.26-200.14,10.47-247.48,57.89
		c-45.22,45.31-80.42,107.18-82.26,189.49c-1.5,67.25,64.36,97.57,107.37,64.79c67.39-51.37,105.38-65.06,168.22-69.89
		c76.38-5.87,126.59,0.2,163.44-56.02C1240.09,370.64,1218.34,261.71,1101.55,228.99z"/>
	
		<linearGradient id="SVGID_11_" gradientUnits="userSpaceOnUse" x1="3157.9573" y1="-836.3762" x2="3262.769" y2="-731.5645" gradientTransform="matrix(-0.8887 0.4585 0.4585 0.8887 3975.2192 -381.0897)">
		<stop  offset="0" style="stop-color:#FB8C21"/>
		<stop  offset="1" style="stop-color:#FF126C"/>
	</linearGradient>
	<path transform="matrix(1 0 0 1 724 318)" class="st12" d="M737.62,371.79c10.58,27.98,0.81,38.56-8.95,56.86
		c-9.76,18.3-1.69,39.13,21.56,36.46c23.25-2.68,43.48-28.47,52.7-54.86c9.22-26.4,8.51-60-14.4-81.94
		C765.62,306.35,718.75,321.88,737.62,371.79z"/>
	<linearGradient id="SVGID_12_" gradientUnits="userSpaceOnUse" x1="1080.6511" y1="517.3749" x2="1154.774" y2="591.4979">
		<stop  offset="0" style="stop-color:#FFE632"/>
		<stop  offset="1" style="stop-color:#FF5682"/>
	</linearGradient>
	<circle transform="matrix(1 0 0 1 1065 502)" class="st13" cx="1117.71" cy="554.44" r="52.41"/>
</g>
<g>
	<g>
		<path class="st14" d="M919.84,375.42c-1.79-1.05-3.18-2.53-4.16-4.45s-1.48-4.15-1.48-6.68v-9.35c0-2.53,0.49-4.76,1.48-6.68
			s2.37-3.41,4.16-4.46s3.86-1.58,6.22-1.58c1.95,0,3.75,0.42,5.39,1.25s3.01,2.02,4.11,3.55s1.85,3.3,2.24,5.32h-4.9
			c-0.3-1.06-0.79-2.01-1.49-2.85s-1.51-1.48-2.45-1.93s-1.91-0.68-2.91-0.68c-1.39,0-2.61,0.34-3.66,1.01s-1.86,1.61-2.44,2.82
			s-0.87,2.62-0.87,4.23v9.35c0,1.59,0.29,3,0.87,4.22s1.39,2.16,2.44,2.82s2.27,1,3.66,1c1.02,0,1.99-0.21,2.92-0.63
			s1.74-1.05,2.44-1.88s1.19-1.81,1.49-2.95h4.9c-0.39,2.02-1.14,3.79-2.25,5.32s-2.48,2.71-4.13,3.55s-3.43,1.25-5.37,1.25
			C923.71,376.99,921.63,376.46,919.84,375.42z"/>
		<path class="st14" d="M949.38,376.63h-4.78v-34.08h4.78V376.63z"/>
		<path class="st14" d="M957.82,342.53h4.78v34.1h-4.78V342.53z M959.91,357.67h11.63c0.91,0,1.71-0.22,2.41-0.66
			s1.25-1.06,1.63-1.86s0.57-1.73,0.57-2.78s-0.19-1.97-0.57-2.78s-0.92-1.43-1.62-1.86s-1.5-0.66-2.43-0.66h-11.63v-4.55h11.44
			c1.97,0,3.7,0.41,5.19,1.22s2.65,1.96,3.47,3.46s1.23,3.21,1.23,5.17s-0.41,3.68-1.24,5.17s-1.99,2.64-3.48,3.46
			s-3.21,1.22-5.17,1.22h-11.44V357.67z M969.19,361.17l4.76-1.08l8.72,16.55h-5.67L969.19,361.17z"/>
		<path class="st14" d="M994.04,375.42c-1.79-1.05-3.18-2.53-4.16-4.45s-1.48-4.15-1.48-6.68v-9.35c0-2.53,0.49-4.76,1.48-6.68
			s2.37-3.41,4.16-4.46s3.86-1.58,6.22-1.58c1.95,0,3.75,0.42,5.39,1.25s3.01,2.02,4.11,3.55s1.85,3.3,2.24,5.32h-4.9
			c-0.3-1.06-0.79-2.01-1.49-2.85s-1.51-1.48-2.45-1.93s-1.91-0.68-2.91-0.68c-1.39,0-2.61,0.34-3.66,1.01s-1.86,1.61-2.44,2.82
			s-0.87,2.62-0.87,4.23v9.35c0,1.59,0.29,3,0.87,4.22s1.39,2.16,2.44,2.82s2.27,1,3.66,1c1.02,0,1.99-0.21,2.92-0.63
			s1.74-1.05,2.44-1.88s1.19-1.81,1.49-2.95h4.9c-0.39,2.02-1.14,3.79-2.25,5.32s-2.48,2.71-4.13,3.55s-3.43,1.25-5.37,1.25
			C997.91,376.99,995.83,376.46,994.04,375.42z"/>
		<path class="st14" d="M1023.83,375.5c-1.79-0.99-3.15-2.44-4.09-4.34s-1.41-4.18-1.41-6.86v-21.75h4.78v21.91
			c0,2.48,0.63,4.41,1.88,5.77s3.02,2.04,5.3,2.04c2.3,0,4.07-0.68,5.33-2.04s1.89-3.28,1.89-5.77v-21.91h4.78v21.75
			c0,2.67-0.47,4.96-1.41,6.86s-2.3,3.34-4.1,4.34s-3.96,1.49-6.49,1.49C1027.78,376.99,1025.62,376.49,1023.83,375.5z"/>
		<path class="st14" d="M1050.26,342.56h4.78v34.08h-4.78V342.56z M1052.65,372.09h19.5v4.55h-19.5V372.09z"/>
		<path class="st14" d="M1082.77,375.43c-1.81-1.04-3.21-2.51-4.21-4.41s-1.49-4.1-1.49-6.6v-9.66c0-2.5,0.5-4.7,1.49-6.6
			s2.39-3.37,4.21-4.41s3.91-1.56,6.28-1.56s4.47,0.52,6.28,1.56s3.21,2.51,4.21,4.41s1.49,4.1,1.49,6.6v9.66
			c0,2.5-0.5,4.7-1.49,6.6s-2.39,3.37-4.21,4.41s-3.91,1.56-6.28,1.56S1084.58,376.47,1082.77,375.43z M1092.76,371.33
			c1.07-0.63,1.9-1.53,2.48-2.7s0.88-2.51,0.88-4.04v-9.98c0-1.53-0.29-2.88-0.88-4.04s-1.41-2.06-2.48-2.7s-2.31-0.95-3.71-0.95
			s-2.64,0.32-3.71,0.95s-1.9,1.53-2.48,2.7s-0.88,2.51-0.88,4.04v9.98c0,1.53,0.29,2.88,0.88,4.04s1.41,2.06,2.48,2.7
			s2.31,0.95,3.71,0.95S1091.69,371.96,1092.76,371.33z"/>
	</g>
</g>
<g>
	<g>
		<path class="st15" d="M915.62,372.42c-1.79-1.05-3.18-2.53-4.16-4.45s-1.48-4.15-1.48-6.68v-9.35c0-2.53,0.49-4.76,1.48-6.68
			s2.37-3.41,4.16-4.46s3.86-1.58,6.22-1.58c1.95,0,3.75,0.42,5.39,1.25s3.01,2.02,4.11,3.55s1.85,3.3,2.24,5.32h-4.9
			c-0.3-1.06-0.79-2.01-1.49-2.85s-1.51-1.48-2.45-1.93s-1.91-0.68-2.91-0.68c-1.39,0-2.61,0.34-3.66,1.01s-1.86,1.61-2.44,2.82
			s-0.87,2.62-0.87,4.23v9.35c0,1.59,0.29,3,0.87,4.22s1.39,2.16,2.44,2.82s2.27,1,3.66,1c1.02,0,1.99-0.21,2.92-0.63
			s1.74-1.05,2.44-1.88s1.19-1.81,1.49-2.95h4.9c-0.39,2.02-1.14,3.79-2.25,5.32s-2.48,2.71-4.13,3.55s-3.43,1.25-5.37,1.25
			C919.48,373.99,917.41,373.46,915.62,372.42z"/>
		<path class="st15" d="M945.16,373.63h-4.78v-34.08h4.78V373.63z"/>
		<path class="st15" d="M953.6,339.53h4.78v34.1h-4.78V339.53z M955.69,354.67h11.63c0.91,0,1.71-0.22,2.41-0.66
			s1.25-1.06,1.63-1.86s0.57-1.73,0.57-2.78s-0.19-1.97-0.57-2.78s-0.92-1.43-1.62-1.86s-1.5-0.66-2.43-0.66h-11.63v-4.55h11.44
			c1.97,0,3.7,0.41,5.19,1.22s2.65,1.96,3.47,3.46s1.23,3.21,1.23,5.17s-0.41,3.68-1.24,5.17s-1.99,2.64-3.48,3.46
			s-3.21,1.22-5.17,1.22h-11.44V354.67z M964.97,358.17l4.76-1.08l8.72,16.55h-5.67L964.97,358.17z"/>
		<path class="st15" d="M989.82,372.42c-1.79-1.05-3.18-2.53-4.16-4.45s-1.48-4.15-1.48-6.68v-9.35c0-2.53,0.49-4.76,1.48-6.68
			s2.37-3.41,4.16-4.46s3.86-1.58,6.22-1.58c1.95,0,3.75,0.42,5.39,1.25s3.01,2.02,4.11,3.55s1.85,3.3,2.24,5.32h-4.9
			c-0.3-1.06-0.79-2.01-1.49-2.85s-1.51-1.48-2.45-1.93s-1.91-0.68-2.91-0.68c-1.39,0-2.61,0.34-3.66,1.01s-1.86,1.61-2.44,2.82
			s-0.87,2.62-0.87,4.23v9.35c0,1.59,0.29,3,0.87,4.22s1.39,2.16,2.44,2.82s2.27,1,3.66,1c1.02,0,1.99-0.21,2.92-0.63
			s1.74-1.05,2.44-1.88s1.19-1.81,1.49-2.95h4.9c-0.39,2.02-1.14,3.79-2.25,5.32s-2.48,2.71-4.13,3.55s-3.43,1.25-5.37,1.25
			C993.69,373.99,991.61,373.46,989.82,372.42z"/>
		<path class="st15" d="M1019.61,372.5c-1.79-0.99-3.15-2.44-4.09-4.34s-1.41-4.18-1.41-6.86v-21.75h4.78v21.91
			c0,2.48,0.63,4.41,1.88,5.77s3.02,2.04,5.3,2.04c2.3,0,4.07-0.68,5.33-2.04s1.89-3.28,1.89-5.77v-21.91h4.78v21.75
			c0,2.67-0.47,4.96-1.41,6.86s-2.3,3.34-4.1,4.34s-3.96,1.49-6.49,1.49C1023.55,373.99,1021.4,373.49,1019.61,372.5z"/>
		<path class="st15" d="M1046.04,339.56h4.78v34.08h-4.78V339.56z M1048.43,369.09h19.5v4.55h-19.5V369.09z"/>
		<path class="st15" d="M1078.54,372.43c-1.81-1.04-3.21-2.51-4.21-4.41s-1.49-4.1-1.49-6.6v-9.66c0-2.5,0.5-4.7,1.49-6.6
			s2.39-3.37,4.21-4.41s3.91-1.56,6.28-1.56s4.47,0.52,6.28,1.56s3.21,2.51,4.21,4.41s1.49,4.1,1.49,6.6v9.66
			c0,2.5-0.5,4.7-1.49,6.6s-2.39,3.37-4.21,4.41s-3.91,1.56-6.28,1.56S1080.36,373.47,1078.54,372.43z M1088.54,368.33
			c1.07-0.63,1.9-1.53,2.48-2.7s0.88-2.51,0.88-4.04v-9.98c0-1.53-0.29-2.88-0.88-4.04s-1.41-2.06-2.48-2.7s-2.31-0.95-3.71-0.95
			s-2.64,0.32-3.71,0.95s-1.9,1.53-2.48,2.7s-0.88,2.51-0.88,4.04v9.98c0,1.53,0.29,2.88,0.88,4.04s1.41,2.06,2.48,2.7
			s2.31,0.95,3.71,0.95S1087.47,368.96,1088.54,368.33z"/>
	</g>
</g>
</svg>
