<?xml version="1.0" encoding="utf-8"?>
<!-- Generator: Adobe Illustrator 24.1.1, SVG Export Plug-In . SVG Version: 6.00 Build 0)  -->
<svg version="1.1" id="Capa_1" xmlns="http://www.w3.org/2000/svg" xmlns:xlink="http://www.w3.org/1999/xlink" x="0px" y="0px"
	 viewBox="0 0 1366 768" style="enable-background:new 0 0 1366 768;" xml:space="preserve">
<style type="text/css">
	.st0{fill:url(#SVGID_1_);}
	.st1{fill:url(#SVGID_2_);}
	.st2{fill:url(#SVGID_3_);}
	.st3{fill:url(#SVGID_4_);}
	.st4{fill:url(#SVGID_5_);}
	.st5{opacity:0.25;}
	.st6{fill:#FFFFFF;}
	.st7{fill:url(#SVGID_6_);}
	.st8{fill:url(#SVGID_7_);}
	.st9{fill:url(#SVGID_8_);}
	.st10{fill:url(#SVGID_9_);}
	.st11{fill:#808080;}
	.st12{fill:#F2F2F2;stroke:#F2F2F2;stroke-width:2;stroke-miterlimit:10;}
</style>
<g>
	<linearGradient id="SVGID_1_" gradientUnits="userSpaceOnUse" x1="149.5" y1="917.5" x2="1216.5" y2="-149.5">
		<stop  offset="0" style="stop-color:#D7D7E1"/>
		<stop  offset="1" style="stop-color:#E1F5FF"/>
	</linearGradient>
	<rect class="st0" width="1366" height="768"/>
</g>
<g>
	<linearGradient id="SVGID_2_" gradientUnits="userSpaceOnUse" x1="1217.4249" y1="269.0405" x2="1288.3175" y2="198.1479">
		<stop  offset="0" style="stop-color:#124679"/>
		<stop  offset="1" style="stop-color:#98FF6E"/>
	</linearGradient>
	<circle class="st1" cx="1252.87" cy="233.59" r="50.13"/>
	
		<linearGradient id="SVGID_3_" gradientUnits="userSpaceOnUse" x1="5409.8071" y1="189.2126" x2="5712.0361" y2="295.1216" gradientTransform="matrix(0.4335 -0.9012 0.9012 0.4335 -1457.1453 5273.5371)">
		<stop  offset="0" style="stop-color:#124679"/>
		<stop  offset="1" style="stop-color:#98FF6E"/>
	</linearGradient>
	<path class="st2" d="M1190.24,209.25c-81.72,10.03-135.08,64.51-154.65,117.11c-17.72,47.62-5.17,112.91,19.82,148.34
		c28.5,40.42,79.44,57.31,113.07,54.32c33.62-2.99,72.47-20.47,85.76-53.7c13.28-33.23-34.22-55.69,17.97-137.39
		C1316.94,267.91,1259.12,200.8,1190.24,209.25z"/>
	
		<linearGradient id="SVGID_4_" gradientUnits="userSpaceOnUse" x1="300.3774" y1="657.181" x2="223.6326" y2="280.1228" gradientTransform="matrix(0.5519 0.8339 -0.8339 0.5519 1203.8845 -88.5369)">
		<stop  offset="0" style="stop-color:#009C86"/>
		<stop  offset="1" style="stop-color:#124679"/>
	</linearGradient>
	<path class="st3" d="M946.88,222.18c140.68,12.42,215.84,75.66,242.71,156.72c26.88,81.05-46.46,184.43-135.57,228.84
		c-89.1,44.4-110.86-24.53-114.05-66.5c-3.19-41.97-41.18-93.61-143.4-112.27c-100.44-18.33-143.77-44.64-112.89-96.64
		C714.56,280.33,825.42,211.45,946.88,222.18z"/>
	
		<linearGradient id="SVGID_5_" gradientUnits="userSpaceOnUse" x1="-1244.6377" y1="1314.1449" x2="-904.3613" y2="1557.4994" gradientTransform="matrix(0.1884 0.9821 0.9312 -0.1786 -183.6411 1664.3645)">
		<stop  offset="0" style="stop-color:#FFE54A"/>
		<stop  offset="1" style="stop-color:#009C86"/>
	</linearGradient>
	<path class="st4" d="M861.43,573.77c-44.05-17.71-62.2-73.58-34.55-118.86c27.66-45.29,14.26-85.32-5.05-118.68
		c-19.31-33.36-34.85-94.61,1-146.54c40.1-58.08,119.33-59.65,160.15,2.65c34.28,52.32,63.26,32.39,72.12,23.22
		c8.85-9.17,27.32-32.71,58.45-16.1c31.14,16.61,39.88,60.93,38.51,118.52s-19.36,130.18-66.74,191.2
		C1010.96,604.94,909.07,592.92,861.43,573.77z"/>
	<g class="st5">
	</g>
	<path class="st6" d="M999.72,178.51l213.26,370.89H786.46L999.72,178.51L999.72,178.51z M999.72,158.4L769.13,559.43h461.18
		L999.72,158.4L999.72,158.4z"/>
	
		<linearGradient id="SVGID_6_" gradientUnits="userSpaceOnUse" x1="238.6868" y1="168.2476" x2="366.7547" y2="242.1876" gradientTransform="matrix(0.8459 0.5334 -0.5334 0.8459 631.3899 -89.833)">
		<stop  offset="0" style="stop-color:#124679"/>
		<stop  offset="1" style="stop-color:#98FF6E"/>
	</linearGradient>
	<path transform="matrix(1 0 0 1 698 170)" class="st7" d="M843.07,233.47c-11.32-31.8-37.51-51.51-60.48-59.29
		c-22.97-7.79-32.83-0.74-33.79,12.35c-0.96,13.09-7.8,18.73-24.27,19.77c-16.46,1.04-32.47,14.56-22.5,32
		c12.28,21.48,30.41,9.73,59.09,25.5c27.7,15.23,47.51,41.34,67.93,36.99C858.87,294.42,848.55,248.88,843.07,233.47z"/>
	<linearGradient id="SVGID_7_" gradientUnits="userSpaceOnUse" x1="723.0921" y1="464.5064" x2="813.5862" y2="412.2596">
		<stop  offset="0" style="stop-color:#FFE54A"/>
		<stop  offset="1" style="stop-color:#98FF6E"/>
	</linearGradient>
	<path transform="matrix(1 0 0 1 717 404)" class="st8" d="M771.55,405.29c-38.27,7.4-66.19,27.17-48.23,59.6
		c0.03-0.01,13.65,26.27,35.62,17.59c16.54-6.53,17.34-23.2,45.26-41.02C836.24,421,807.13,398.42,771.55,405.29z"/>
	
		<linearGradient id="SVGID_8_" gradientUnits="userSpaceOnUse" x1="9568.8633" y1="3481.2886" x2="9276.4951" y2="3130.0496" gradientTransform="matrix(-0.6151 0.7422 -0.7454 -0.6178 9267.333 -4524.6699)">
		<stop  offset="0" style="stop-color:#FFE54A"/>
		<stop  offset="1" style="stop-color:#98FF6E"/>
	</linearGradient>
	<path transform="matrix(1 0 0 1 756 271)" class="st9" d="M1057.71,593.7c44.02-17.36,28.06-77.81,70.67-138.04
		c41.16-58.16,108.3-85.49,98.46-136.12c-14.38-73.93-141.1-65.36-181.2-60.03c-82.77,11.02-221.92,91.03-252,161.65
		c-21.58,50.67,8.72,68.98,66.83,74.5c34.64,3.29,74.85,15.27,107.09,49.66C994.62,574.2,1021.93,607.81,1057.71,593.7z"/>
	
		<linearGradient id="SVGID_9_" gradientUnits="userSpaceOnUse" x1="3260.7397" y1="221.485" x2="3296.1855" y2="186.039" gradientTransform="matrix(1 0 0 -1 -2165.9521 688)">
		<stop  offset="0" style="stop-color:#124679"/>
		<stop  offset="1" style="stop-color:#98FF6E"/>
	</linearGradient>
	<circle transform="matrix(1 0 0 1 1087 459)" class="st10" cx="1112.51" cy="484.24" r="25.06"/>
	<g>
		<g>
			<path class="st11" d="M899.75,370.28h24.05v4.55h-24.05V370.28z M909.38,373.07h4.78v31.29h-4.78V373.07z"/>
			<path class="st11" d="M927.54,370.26h4.78v34.1h-4.78V370.26z M929.63,385.4h11.63c0.91,0,1.71-0.22,2.41-0.66
				s1.25-1.06,1.63-1.86s0.57-1.73,0.57-2.78s-0.19-1.97-0.57-2.78s-0.92-1.43-1.62-1.86s-1.5-0.66-2.43-0.66h-11.63v-4.55h11.44
				c1.97,0,3.7,0.41,5.19,1.22s2.65,1.96,3.47,3.46s1.23,3.21,1.23,5.17s-0.41,3.68-1.24,5.17s-1.99,2.64-3.48,3.46
				s-3.21,1.22-5.17,1.22h-11.44V385.4z M938.91,388.89l4.76-1.08l8.72,16.55h-5.67L938.91,388.89z"/>
			<path class="st11" d="M963.61,404.36h-4.78v-34.08h4.78V404.36z"/>
			<path class="st11" d="M981.33,370.28h4.08l12.56,34.08h-5.16l-9.45-27.49l-9.45,27.49h-5.16L981.33,370.28z M974.56,392.33h17.93
				v4.55h-17.93V392.33z M981.17,365.17l6.47-5.74l3.09,3.21l-6.91,5.3L981.17,365.17z"/>
			<path class="st11" d="M1003.13,370.28h4.34l16.66,26.34l-0.56,0.61v-26.95h4.73v34.05h-4.38l-16.62-25.95l0.56-0.61v26.55h-4.73
				V370.28z"/>
			<path class="st11" d="M1060.03,386.01v5.95c0,2.53-0.49,4.76-1.48,6.69s-2.38,3.42-4.18,4.48s-3.89,1.58-6.27,1.58
				c-2.41,0-4.52-0.5-6.34-1.49s-3.23-2.39-4.23-4.21s-1.5-3.91-1.5-6.3v-10.05c0-2.53,0.49-4.76,1.48-6.68s2.38-3.41,4.18-4.46
				s3.89-1.58,6.27-1.58c1.95,0,3.75,0.42,5.4,1.25s3.03,2.02,4.14,3.55s1.86,3.3,2.25,5.32h-5.18c-0.28-1.14-0.76-2.12-1.43-2.94
				s-1.46-1.45-2.37-1.88s-1.84-0.64-2.81-0.64c-1.41,0-2.64,0.34-3.7,1.01s-1.88,1.61-2.46,2.82s-0.87,2.62-0.87,4.23v10.05
				c0,1.47,0.3,2.75,0.89,3.86s1.43,1.96,2.52,2.57s2.34,0.91,3.76,0.91c1.41,0,2.64-0.32,3.7-0.95s1.88-1.55,2.46-2.75
				s0.87-2.63,0.87-4.29v-1.48h-6.91v-4.57H1060.03z"/>
			<path class="st11" d="M1072.8,403.22c-1.79-0.99-3.15-2.44-4.09-4.34s-1.41-4.18-1.41-6.86v-21.75h4.78v21.91
				c0,2.48,0.63,4.41,1.88,5.77s3.02,2.04,5.3,2.04c2.3,0,4.07-0.68,5.33-2.04s1.89-3.28,1.89-5.77v-21.91h4.78v21.75
				c0,2.67-0.47,4.96-1.41,6.86s-2.3,3.34-4.1,4.34s-3.96,1.49-6.49,1.49C1076.74,404.71,1074.58,404.21,1072.8,403.22z"/>
			<path class="st11" d="M1099.22,370.28h4.78v34.08h-4.78V370.28z M1101.61,399.81h19.5v4.55h-19.5V399.81z"/>
			<path class="st11" d="M1131.73,403.15c-1.81-1.04-3.21-2.51-4.21-4.41s-1.49-4.1-1.49-6.6v-9.66c0-2.5,0.5-4.7,1.49-6.6
				s2.39-3.37,4.21-4.41s3.91-1.56,6.28-1.56s4.47,0.52,6.28,1.56s3.21,2.51,4.21,4.41s1.49,4.1,1.49,6.6v9.66
				c0,2.5-0.5,4.7-1.49,6.6s-2.39,3.37-4.21,4.41s-3.91,1.56-6.28,1.56S1133.54,404.19,1131.73,403.15z M1141.73,399.05
				c1.07-0.63,1.9-1.53,2.48-2.7s0.88-2.51,0.88-4.04v-9.98c0-1.53-0.29-2.88-0.88-4.04s-1.41-2.06-2.48-2.7s-2.31-0.95-3.71-0.95
				s-2.64,0.32-3.71,0.95s-1.9,1.53-2.48,2.7s-0.88,2.51-0.88,4.04v9.98c0,1.53,0.29,2.88,0.88,4.04s1.41,2.06,2.48,2.7
				s2.31,0.95,3.71,0.95S1140.66,399.68,1141.73,399.05z"/>
		</g>
	</g>
	<g>
		<g>
			<g>
				<path class="st12" d="M893.93,367.43h24.05v4.55h-24.05V367.43z M903.57,370.22h4.78v31.29h-4.78V370.22z"/>
				<path class="st12" d="M921.73,367.41h4.78v34.1h-4.78V367.41z M923.82,382.55h11.63c0.91,0,1.71-0.22,2.41-0.66
					s1.25-1.06,1.63-1.86s0.57-1.73,0.57-2.78s-0.19-1.97-0.57-2.78s-0.92-1.43-1.62-1.86s-1.5-0.66-2.43-0.66h-11.63v-4.55h11.44
					c1.97,0,3.7,0.41,5.19,1.22s2.65,1.96,3.47,3.46s1.23,3.21,1.23,5.17s-0.41,3.68-1.24,5.17s-1.99,2.64-3.48,3.46
					s-3.21,1.22-5.17,1.22h-11.44V382.55z M933.1,386.04l4.76-1.08l8.72,16.55h-5.67L933.1,386.04z"/>
				<path class="st12" d="M957.8,401.51h-4.78v-34.08h4.78V401.51z"/>
				<path class="st12" d="M975.52,367.43h4.08l12.56,34.08H987l-9.45-27.49l-9.45,27.49h-5.16L975.52,367.43z M968.75,389.48h17.93
					v4.55h-17.93V389.48z M975.36,362.32l6.47-5.74l3.09,3.21l-6.91,5.3L975.36,362.32z"/>
				<path class="st12" d="M997.32,367.43h4.34l16.66,26.34l-0.56,0.61v-26.95h4.73v34.05h-4.38l-16.62-25.95l0.56-0.61v26.55h-4.73
					V367.43z"/>
				<path class="st12" d="M1054.22,383.16v5.95c0,2.53-0.49,4.76-1.48,6.69s-2.38,3.42-4.18,4.48s-3.89,1.58-6.27,1.58
					c-2.41,0-4.52-0.5-6.34-1.49s-3.23-2.39-4.23-4.21s-1.5-3.91-1.5-6.3V379.8c0-2.53,0.49-4.76,1.48-6.68s2.38-3.41,4.18-4.46
					s3.89-1.58,6.27-1.58c1.95,0,3.75,0.42,5.4,1.25s3.03,2.02,4.14,3.55s1.86,3.3,2.25,5.32h-5.18c-0.28-1.14-0.76-2.12-1.43-2.94
					s-1.46-1.45-2.37-1.88s-1.84-0.64-2.81-0.64c-1.41,0-2.64,0.34-3.7,1.01s-1.88,1.61-2.46,2.82s-0.87,2.62-0.87,4.23v10.05
					c0,1.47,0.3,2.75,0.89,3.86s1.43,1.96,2.52,2.57s2.34,0.91,3.76,0.91c1.41,0,2.64-0.32,3.7-0.95s1.88-1.55,2.46-2.75
					s0.87-2.63,0.87-4.29v-1.48h-6.91v-4.57H1054.22z"/>
				<path class="st12" d="M1066.98,400.37c-1.79-0.99-3.15-2.44-4.09-4.34s-1.41-4.18-1.41-6.86v-21.75h4.78v21.91
					c0,2.48,0.63,4.41,1.88,5.77s3.02,2.04,5.3,2.04c2.3,0,4.07-0.68,5.33-2.04s1.89-3.28,1.89-5.77v-21.91h4.78v21.75
					c0,2.67-0.47,4.96-1.41,6.86s-2.3,3.34-4.1,4.34s-3.96,1.49-6.49,1.49C1070.93,401.86,1068.77,401.36,1066.98,400.37z"/>
				<path class="st12" d="M1093.41,367.43h4.78v34.08h-4.78V367.43z M1095.8,396.96h19.5v4.55h-19.5V396.96z"/>
				<path class="st12" d="M1125.92,400.3c-1.81-1.04-3.21-2.51-4.21-4.41s-1.49-4.1-1.49-6.6v-9.66c0-2.5,0.5-4.7,1.49-6.6
					s2.39-3.37,4.21-4.41s3.91-1.56,6.28-1.56s4.47,0.52,6.28,1.56s3.21,2.51,4.21,4.41s1.49,4.1,1.49,6.6v9.66
					c0,2.5-0.5,4.7-1.49,6.6s-2.39,3.37-4.21,4.41s-3.91,1.56-6.28,1.56S1127.73,401.34,1125.92,400.3z M1135.91,396.2
					c1.07-0.63,1.9-1.53,2.48-2.7s0.88-2.51,0.88-4.04v-9.98c0-1.53-0.29-2.88-0.88-4.04s-1.41-2.06-2.48-2.7s-2.31-0.95-3.71-0.95
					s-2.64,0.32-3.71,0.95s-1.9,1.53-2.48,2.7s-0.88,2.51-0.88,4.04v9.98c0,1.53,0.29,2.88,0.88,4.04s1.41,2.06,2.48,2.7
					s2.31,0.95,3.71,0.95S1134.84,396.83,1135.91,396.2z"/>
			</g>
		</g>
	</g>
</g>
</svg>
